<svg width="256" height="256" viewBox="0 0 256 256" fill="none" xmlns="http://www.w3.org/2000/svg">
<rect x="4" y="3" width="248.202" height="250.131" rx="124.101" fill="#3A3A3A"/>
<path fill-rule="evenodd" clip-rule="evenodd" d="M127.378 21.6758C68.9342 21.6758 21.2012 69.0536 21.2012 127.497C21.2012 185.941 68.9342 233.318 127.378 233.318C155.113 233.318 180.436 222.648 199.39 205.189C184.409 215.233 166.388 221.094 147.029 221.094C95.1895 221.094 52.9526 179.07 52.9526 127.23C52.9526 75.3905 95.1895 33.3661 147.029 33.3661C165.461 33.3661 182.679 38.6788 197.216 47.8563C178.52 31.5552 154.066 21.6758 127.378 21.6758Z" fill="#E5E5E5"/>
<path fill-rule="evenodd" clip-rule="evenodd" d="M221.393 77.2818C221.917 78.2466 222.427 79.2203 222.921 80.2029L215.17 81.6906L212.335 96.1157L209.5 81.6906L194.902 78.889L209.5 76.0873L212.072 63C212.309 63.3069 212.545 63.6152 212.779 63.9247L215.17 76.0873L221.393 77.2818Z" fill="#D9D9D9"/>
<path fill-rule="evenodd" clip-rule="evenodd" d="M184.66 173.296L181.825 158.871L178.99 173.296L164.393 176.098L178.99 178.899L181.825 193.325L184.66 178.899L199.257 176.098L184.66 173.296Z" fill="#D9D9D9"/>
<path fill-rule="evenodd" clip-rule="evenodd" d="M233.835 135.357C233.766 136.289 233.685 137.218 233.592 138.143L226.375 139.528L223.54 153.953L220.705 139.528L206.107 136.727L220.705 133.925L223.54 119.5L226.375 133.925L233.835 135.357Z" fill="#D9D9D9"/>
</svg>
